<svg width="16" height="16" viewBox="0 0 16 16" fill="none" xmlns="http://www.w3.org/2000/svg">
<g clip-path="url(#clip0_35_2)">
<path d="M15.5625 2.6625L15.0125 11.2375L9.7875 0L15.5625 2.6625ZM11.9375 13.75L8 16L4.0625 13.75L4.8625 11.8125H11.15L11.9375 13.75ZM8 4.2625L10.0625 9.2875H5.9375L8 4.2625ZM0.9875 11.2375L0.4375 2.6625L6.2125 0L0.9875 11.2375Z" fill="url(#paint0_linear_35_2)"/>
<path d="M15.5625 2.6625L15.0125 11.2375L9.7875 0L15.5625 2.6625ZM11.9375 13.75L8 16L4.0625 13.75L4.8625 11.8125H11.15L11.9375 13.75ZM8 4.2625L10.0625 9.2875H5.9375L8 4.2625ZM0.9875 11.2375L0.4375 2.6625L6.2125 0L0.9875 11.2375Z" fill="url(#paint1_linear_35_2)"/>
</g>
<defs>
<linearGradient id="paint0_linear_35_2" x1="1.838" y1="10.4662" x2="13.8731" y2="4.747" gradientUnits="userSpaceOnUse">
<stop stop-color="#E40035"/>
<stop offset="0.24" stop-color="#F60A48"/>
<stop offset="0.352" stop-color="#F20755"/>
<stop offset="0.494" stop-color="#DC087D"/>
<stop offset="0.745" stop-color="#9717E7"/>
<stop offset="1" stop-color="#6C00F5"/>
</linearGradient>
<linearGradient id="paint1_linear_35_2" x1="3.59162" y1="1.61612" x2="11.4677" y2="10.6006" gradientUnits="userSpaceOnUse">
<stop stop-color="#FF31D9"/>
<stop offset="1" stop-color="#FF5BE1" stop-opacity="0"/>
</linearGradient>
<clipPath id="clip0_35_2">
<rect width="16" height="16" fill="white"/>
</clipPath>
</defs>
</svg>
