<svg width="16" height="16" viewBox="0 0 16 16" fill="none" xmlns="http://www.w3.org/2000/svg">
<g clip-path="url(#clip0_40_14)">
<path d="M7.586 0.101978C7.70072 0.0350323 7.83117 -0.000244141 7.964 -0.000244141C8.09683 -0.000244141 8.22728 0.0350323 8.342 0.101978L14.556 3.72698C14.6694 3.79293 14.7636 3.88748 14.829 4.00118C14.8945 4.11489 14.9289 4.24378 14.929 4.37498V11.625C14.9289 11.7562 14.8945 11.8851 14.829 11.9988C14.7636 12.1125 14.6694 12.207 14.556 12.273L8.342 15.898C8.22728 15.9649 8.09683 16.0002 7.964 16.0002C7.83117 16.0002 7.70072 15.9649 7.586 15.898L6.033 14.992C5.86114 14.8917 5.73614 14.7273 5.68551 14.5349C5.63487 14.3425 5.66275 14.1378 5.763 13.966C5.86325 13.7941 6.02767 13.6691 6.22008 13.6185C6.41249 13.5679 6.61714 13.5957 6.789 13.696L7.964 14.382L13.429 11.194V4.80598L7.964 1.61798L2.5 4.80598V11.194L3.617 11.846C3.961 11.956 4.387 11.983 4.686 11.851C4.84252 11.7824 4.97094 11.6625 5.05 11.511C5.154 11.323 5.25 11.01 5.25 10.5V5.24998C5.25 5.05107 5.32902 4.8603 5.46967 4.71965C5.61032 4.579 5.80109 4.49998 6 4.49998C6.19891 4.49998 6.38968 4.579 6.53033 4.71965C6.67098 4.8603 6.75 5.05107 6.75 5.24998V10.5C6.75 11.1913 6.62 11.7713 6.36 12.24C6.12237 12.6766 5.74682 13.0223 5.292 13.223C4.486 13.579 3.595 13.433 3.05 13.237C3.00739 13.2205 2.96596 13.2011 2.926 13.179L1.372 12.273C1.25877 12.2069 1.16483 12.1123 1.09956 11.9986C1.03429 11.8849 0.999961 11.7561 1 11.625V4.37498C0.999961 4.24388 1.03429 4.11505 1.09956 4.00136C1.16483 3.88766 1.25877 3.79305 1.372 3.72698L7.586 0.101978ZM8.246 5.28298C8.643 4.81098 9.263 4.49998 10.104 4.49998C10.884 4.49998 11.479 4.76798 11.882 5.19298C11.9521 5.26407 12.0073 5.34844 12.0443 5.44113C12.0813 5.53382 12.0995 5.63298 12.0977 5.73278C12.096 5.83259 12.0743 5.93104 12.034 6.02236C11.9937 6.11368 11.9355 6.19603 11.863 6.26459C11.7904 6.33315 11.7049 6.38654 11.6115 6.42162C11.518 6.45671 11.4185 6.47278 11.3187 6.4689C11.219 6.46503 11.121 6.44128 11.0306 6.39905C10.9401 6.35682 10.859 6.29696 10.792 6.22298C10.703 6.13198 10.52 5.99998 10.103 5.99998C9.661 5.99998 9.479 6.14798 9.394 6.24798C9.30624 6.3547 9.25537 6.48695 9.249 6.62498C9.249 6.70798 9.285 6.87198 9.394 7.00198C9.479 7.10198 9.661 7.24998 10.104 7.24998C10.1757 7.25043 10.247 7.26052 10.316 7.27998C10.936 7.36998 11.408 7.64798 11.732 8.03298C12.104 8.47598 12.228 8.99998 12.228 9.37498C12.228 9.74998 12.104 10.274 11.732 10.717C11.335 11.189 10.715 11.5 9.874 11.5C9.094 11.5 8.499 11.232 8.097 10.807C7.9653 10.6616 7.89581 10.4704 7.90343 10.2744C7.91104 10.0783 7.99516 9.89309 8.13774 9.75835C8.28033 9.62361 8.47003 9.55011 8.66617 9.55359C8.86232 9.55707 9.04929 9.63727 9.187 9.77698C9.274 9.86898 9.458 9.99998 9.874 9.99998C10.316 9.99998 10.499 9.85198 10.584 9.75198C10.6714 9.64513 10.7219 9.51289 10.728 9.37498C10.7216 9.23695 10.6708 9.1047 10.583 8.99798C10.499 8.89798 10.316 8.74998 9.874 8.74998C9.80197 8.74961 9.73033 8.73952 9.661 8.71998C9.041 8.62998 8.569 8.35198 8.246 7.96698C7.93124 7.58993 7.75575 7.11609 7.749 6.62498C7.749 6.24998 7.873 5.72598 8.246 5.28298Z" fill="#89C04F"/>
</g>
<defs>
<clipPath id="clip0_40_14">
<rect width="16" height="16" fill="white"/>
</clipPath>
</defs>
</svg>
