<svg width="16" height="16" viewBox="0 0 16 16" fill="none" xmlns="http://www.w3.org/2000/svg">
<path d="M15.8337 12.305C15.2637 12.45 14.9112 12.3113 14.595 11.8363C13.885 10.7725 13.1012 9.7575 12.345 8.72375C12.2475 8.59 12.1462 8.45875 12.02 8.2925C11.125 9.5 10.2312 10.65 9.39248 11.8463C9.09248 12.2738 8.77747 12.46 8.21747 12.3088L11.5825 7.7925L8.44998 3.71375C8.98873 3.60875 9.36123 3.6625 9.69123 4.145C10.42 5.21 11.2237 6.22375 12.025 7.29625C12.8312 6.2275 13.625 5.2125 14.375 4.1575C14.6762 3.73 15 3.5675 15.5412 3.725C15.1312 4.26875 14.73 4.80375 14.3262 5.335C13.7812 6.05125 13.2462 6.77625 12.6812 7.4775C12.48 7.7275 12.5125 7.89001 12.6925 8.12626C13.7375 9.50001 14.77 10.8875 15.8337 12.305ZM0.166226 7.7175C0.256226 7.26625 0.316226 6.80625 0.441226 6.36375C1.19123 3.685 4.26623 2.57125 6.37873 4.23125C7.61623 5.205 7.92373 6.5775 7.86248 8.125H0.887476C0.782476 10.9013 2.78123 12.5775 5.32873 11.7225C6.22248 11.4225 6.74873 10.7225 7.01248 9.8475C7.14623 9.40875 7.36748 9.34 7.77998 9.465C7.56873 10.56 7.08998 11.475 6.08998 12.0475C4.58998 12.905 2.44873 12.6275 1.32248 11.4363C0.657476 10.7363 0.374976 9.865 0.249976 8.92375C0.231226 8.77375 0.192476 8.62625 0.162476 8.4775C0.164976 8.22417 0.166226 7.97084 0.166226 7.7175ZM0.899976 7.53125H7.20373C7.16248 5.52375 5.91248 4.0975 4.20373 4.085C2.32873 4.07 0.981226 5.4625 0.899976 7.53125Z" fill="black"/>
</svg>
