<svg width="512" height="512" viewBox="0 0 512 512" fill="none" xmlns="http://www.w3.org/2000/svg">
<rect width="512" height="512" rx="80" fill="white"/>
<path d="M240.617 172.607C240.617 172.607 307.339 131.564 286.369 117.247C265.4 102.929 218.695 128.7 202.491 137.291C186.287 145.881 117.659 190.742 134.816 207.923C151.973 225.103 195.819 210.786 195.819 210.786C195.819 210.786 145.584 228.06 123.378 251.829C123.378 251.829 76.6724 293.826 105.268 309.098C133.863 324.37 297.808 210.786 297.808 210.786C297.808 210.786 192.006 416 163.411 397.865C134.816 379.73 189.146 343.46 189.146 343.46C189.146 343.46 248.243 302.417 287.323 270.919C326.402 239.421 339.747 219.376 339.747 219.376M339.747 219.376L364.529 225.103C364.529 225.103 336.888 263.283 352.138 270.919C367.388 278.555 387.405 263.283 387.405 263.283M339.747 219.376V210.786L343.559 204.105M313.058 169.743V175.47M416 266.146V270.919M387.405 323.415C387.931 327.873 391.501 331.051 395.983 331.051C400.466 331.051 403.855 327.848 404.562 323.415C405.397 318.184 401.274 312.916 395.983 312.916C390.693 312.916 386.358 318.223 387.405 323.415ZM387.405 323.415C386.661 323.415 385.499 323.415 385.499 323.415H285.416L243.477 367.322" stroke="black" stroke-width="17" stroke-linecap="round" stroke-linejoin="round"/>
</svg>
