<svg width="16" height="16" viewBox="0 0 16 16" fill="none" xmlns="http://www.w3.org/2000/svg">
<g clip-path="url(#clip0_42_2)">
<path d="M2.18427 12.9095L4.15364 0.307756C4.16544 0.232444 4.20059 0.162742 4.25415 0.108493C4.3077 0.0542444 4.37694 0.0181915 4.4521 0.00542649C4.52725 -0.0073385 4.60451 0.00382966 4.67298 0.0373535C4.74144 0.0708774 4.79764 0.125063 4.83364 0.192256L6.87039 3.99101L7.68214 2.44526C7.71301 2.38662 7.7593 2.33753 7.81603 2.30329C7.87275 2.26905 7.93775 2.25095 8.00401 2.25095C8.07028 2.25095 8.13528 2.26905 8.192 2.30329C8.24873 2.33753 8.29502 2.38662 8.32589 2.44526L13.8221 12.9095H2.18427Z" fill="#FFA000"/>
<path d="M8.98789 8.00062L6.86939 3.98912L2.18427 12.9095L8.98789 8.00062Z" fill="#F57C00"/>
<path d="M13.8221 12.9095L12.3138 3.5755C12.3026 3.5097 12.2736 3.44824 12.2298 3.39784C12.1861 3.34744 12.1293 3.31004 12.0658 3.28975C12.0022 3.2695 11.9343 3.26712 11.8695 3.28286C11.8047 3.2986 11.7455 3.33186 11.6983 3.379L2.18427 12.9094L7.44864 15.8616C7.61122 15.9524 7.79432 16 7.98052 16C8.16671 16 8.34981 15.9524 8.51239 15.8616L13.8221 12.9095Z" fill="#FFCA28"/>
<path d="M12.3137 3.57549C12.3026 3.5097 12.2736 3.44824 12.2298 3.39784C12.1861 3.34744 12.1293 3.31004 12.0657 3.28974C12.0022 3.26948 11.9343 3.26708 11.8695 3.2828C11.8047 3.29852 11.7454 3.33175 11.6982 3.37887L9.80986 5.27224L8.32498 2.44524C8.29412 2.38661 8.24782 2.33752 8.19109 2.30328C8.13437 2.26903 8.06937 2.25094 8.00311 2.25094C7.93685 2.25094 7.87184 2.26903 7.81512 2.30328C7.75839 2.33752 7.7121 2.38661 7.68123 2.44524L6.86948 3.99087L4.83273 0.192244C4.79669 0.124958 4.74039 0.0707162 4.67181 0.0371999C4.60323 0.00368367 4.52584 -0.00740866 4.45061 0.00549371C4.37542 0.0183925 4.3062 0.0546008 4.25272 0.108998C4.19924 0.163395 4.16422 0.233227 4.15261 0.308619L2.18423 12.9095H2.17786L2.18411 12.9167L2.23598 12.9422L11.6955 3.47174C11.7427 3.42436 11.802 3.3909 11.8669 3.37503C11.9319 3.35916 12 3.3615 12.0637 3.38179C12.1274 3.40209 12.1842 3.43955 12.2281 3.49006C12.2719 3.54057 12.3009 3.60218 12.312 3.66812L13.8076 12.9185L13.8221 12.9094L12.3137 3.57549ZM2.20148 12.8922L4.15348 0.397744C4.16508 0.322312 4.20011 0.252439 4.25361 0.198015C4.30712 0.143592 4.37638 0.107376 4.45161 0.0944937C4.52685 0.0816023 4.60425 0.0927132 4.67283 0.126253C4.74141 0.159792 4.7977 0.21406 4.83373 0.281369L6.87023 4.08012L7.68211 2.53437C7.71297 2.47574 7.75927 2.42665 7.81599 2.3924C7.87272 2.35816 7.93772 2.34006 8.00398 2.34006C8.07024 2.34006 8.13524 2.35816 8.19197 2.3924C8.2487 2.42665 8.29499 2.47574 8.32586 2.53437L9.78061 5.30124L2.20123 12.8922H2.20148Z" fill="white" fill-opacity="0.2"/>
<path opacity="0.2" d="M8.5124 15.7725C8.34981 15.8633 8.16672 15.9109 7.98052 15.9109C7.79433 15.9109 7.61123 15.8633 7.44865 15.7725L2.19677 12.8288L2.18402 12.9096L7.4484 15.8609C7.61098 15.9516 7.79408 15.9993 7.98027 15.9993C8.16647 15.9993 8.34956 15.9516 8.51215 15.8609L13.8221 12.9096L13.8084 12.8259L8.51215 15.7728L8.5124 15.7725Z" fill="#A52714"/>
</g>
<defs>
<clipPath id="clip0_42_2">
<rect width="16" height="16" fill="white"/>
</clipPath>
</defs>
</svg>
