<svg width="16" height="16" viewBox="0 0 16 16" fill="none" xmlns="http://www.w3.org/2000/svg">
<path fill-rule="evenodd" clip-rule="evenodd" d="M11.0048 5.3515C11.2054 5.93188 11.3499 6.52438 11.3974 7.1385C11.4564 7.90038 11.4294 8.65688 11.2688 9.40625C11.2644 9.42688 11.2551 9.44625 11.2483 9.46625C11.1979 9.46638 11.1465 9.46013 11.0973 9.46775C10.6811 9.53313 10.2654 9.60088 9.84965 9.66825C9.4199 9.73788 8.98952 9.80475 8.56052 9.87913C8.40852 9.90538 8.2204 9.874 8.15902 10.0843C8.15727 10.09 8.13977 10.091 8.12965 10.0943L8.1504 8.83788L8.12927 5.80638L8.32952 5.772C8.65702 5.71838 8.98452 5.664 9.31227 5.61188C9.7034 5.54975 10.0949 5.48938 10.4863 5.42875C10.6589 5.40188 10.8318 5.37725 11.0048 5.3515Z" fill="#439934"/>
<path fill-rule="evenodd" clip-rule="evenodd" d="M7.7161 13.7568C7.50485 13.5751 7.28622 13.4015 7.08372 13.2105C5.9941 12.1828 5.1971 10.9731 4.8046 9.51475C4.69647 9.11338 4.62435 8.7055 4.60122 8.29075C4.58497 8.0005 4.56147 7.70763 4.58197 7.41888C4.6366 6.65088 4.7476 5.89025 4.97285 5.1505L4.98522 5.13326C5.0071 5.16238 5.0386 5.18813 5.04972 5.221C5.26955 5.8685 5.48797 6.51646 5.70497 7.16488C6.38722 9.20238 7.0686 11.2404 7.75197 13.2774C7.76535 13.3171 7.79997 13.3498 7.82485 13.3856L7.7161 13.7568Z" fill="#45A538"/>
<path fill-rule="evenodd" clip-rule="evenodd" d="M11.0048 5.3515C10.8318 5.37725 10.6588 5.40187 10.4861 5.4285C10.0948 5.48912 9.70325 5.5495 9.31213 5.61162C8.98438 5.66375 8.65688 5.71812 8.32938 5.77175L8.12913 5.80612L8.12763 5.6755C8.121 5.56812 8.10963 5.46087 8.10838 5.3535C8.09975 4.66875 8.09438 3.984 8.08588 3.29925C8.08063 2.87062 8.07275 2.44212 8.064 2.01362C8.05863 1.74737 8.05288 1.481 8.04088 1.21512C8.03438 1.07225 8.01138 0.930121 8.002 0.787246C7.99675 0.705121 8.004 0.622371 8.00563 0.539871C8.10775 0.737746 8.20763 0.937121 8.31263 1.1335C8.4785 1.444 8.74275 1.67275 8.98063 1.92237C9.921 2.90887 10.5886 4.05587 11.0048 5.3515Z" fill="#46A037"/>
<path fill-rule="evenodd" clip-rule="evenodd" d="M8.12949 10.0941C8.13962 10.0909 8.15724 10.0899 8.15887 10.0841C8.22024 9.87387 8.40837 9.90525 8.56037 9.879C8.98937 9.80475 9.41974 9.73775 9.84949 9.66812C10.2652 9.60075 10.681 9.533 11.0971 9.46762C11.1464 9.45987 11.1977 9.46625 11.2481 9.46612C11.1704 9.74362 11.1091 10.0271 11.0105 10.297C10.8985 10.6031 10.763 10.9019 10.6191 11.1947C10.4039 11.6317 10.1373 12.0414 9.82499 12.4151C9.58512 12.7036 9.31774 12.9702 9.04974 13.2336C8.90162 13.3792 8.72699 13.4979 8.56449 13.6287L8.52237 13.6L8.37062 13.4702L8.21362 13.1261C8.10637 12.7247 8.04787 12.3118 8.03937 11.8964L8.04224 11.8262L8.06362 11.523C8.07074 11.4195 8.08024 11.3161 8.08462 11.2124C8.10074 10.8396 8.11474 10.4669 8.12949 10.0941Z" fill="#409433"/>
<path fill-rule="evenodd" clip-rule="evenodd" d="M8.12948 10.0941C8.11473 10.4669 8.10073 10.8396 8.08485 11.2125C8.08048 11.3162 8.07098 11.4196 8.06385 11.5231L7.96823 11.5592C7.75585 10.934 7.54335 10.3154 7.33548 9.69512C6.99173 8.669 6.6521 7.64125 6.30885 6.61487C6.03161 5.78643 5.75245 4.95864 5.47135 4.1315C5.45823 4.09275 5.42048 4.0625 5.39423 4.02825L6.00623 2.903C6.02723 2.9395 6.05498 2.97362 6.06823 3.01287C6.35167 3.85064 6.63367 4.68889 6.91423 5.52762C7.27873 6.61887 7.64098 7.711 8.00523 8.80237C8.01973 8.846 8.04373 8.88625 8.0666 8.93513L8.15035 8.83762L8.12948 10.0941Z" fill="#4FAA41"/>
<path fill-rule="evenodd" clip-rule="evenodd" d="M5.39435 4.02838C5.4206 4.06263 5.45823 4.09288 5.47148 4.13163C5.75257 4.95877 6.03174 5.78656 6.30898 6.61501C6.65223 7.64138 6.99185 8.66913 7.3356 9.69526C7.54335 10.3154 7.75585 10.9341 7.96835 11.5594L8.06398 11.5233L8.0426 11.8265L8.02323 11.8964C7.98998 12.2284 7.96198 12.5611 7.92148 12.8924C7.9011 13.0584 7.85785 13.2214 7.82498 13.3858C7.80023 13.3499 7.76548 13.3173 7.7521 13.2775C7.06873 11.2404 6.38735 9.20251 5.7051 7.16501C5.48805 6.51659 5.26963 5.86863 5.04985 5.22113C5.03873 5.18826 5.00735 5.16251 4.98535 5.13338L5.39435 4.02838Z" fill="#4AA73C"/>
<path fill-rule="evenodd" clip-rule="evenodd" d="M8.15023 8.83775L8.06648 8.93525C8.0436 8.88638 8.0196 8.846 8.0051 8.8025C7.64098 7.71113 7.2786 6.619 6.9141 5.52775C6.63355 4.68902 6.35155 3.85077 6.0681 3.013C6.05498 2.97375 6.02723 2.9395 6.0061 2.90313L6.76298 1.9075C6.78685 1.93938 6.82085 1.96775 6.83323 2.00363C7.04323 2.61879 7.25169 3.23454 7.4586 3.85088C7.65198 4.42638 7.84248 5.00275 8.0381 5.5775C8.05123 5.616 8.09685 5.64325 8.12735 5.67575L8.12885 5.80638C8.1361 6.81671 8.14323 7.82717 8.15023 8.83775Z" fill="#57AE47"/>
<path fill-rule="evenodd" clip-rule="evenodd" d="M8.12762 5.6755C8.09712 5.643 8.05149 5.61575 8.03837 5.57725C7.84274 5.0025 7.65224 4.42612 7.45887 3.85062C7.25195 3.23437 7.04349 2.61862 6.83349 2.00337C6.82112 1.9675 6.78712 1.93912 6.76324 1.90725C7.00937 1.66625 7.24787 1.41662 7.50387 1.18675C7.73149 0.982495 7.91449 0.763495 7.92287 0.440745C7.92324 0.42737 7.93024 0.413995 7.94099 0.376495L8.00587 0.539745C8.00424 0.62237 7.99687 0.704995 8.00224 0.78712C8.01162 0.929995 8.03462 1.07212 8.04112 1.215C8.05312 1.48087 8.05887 1.74725 8.06424 2.0135C8.07287 2.442 8.08075 2.8705 8.08612 3.29912C8.0945 3.98387 8.1 4.66862 8.10862 5.35337C8.10962 5.461 8.12087 5.56812 8.12762 5.6755Z" fill="#60B24F"/>
<path fill-rule="evenodd" clip-rule="evenodd" d="M7.82475 13.3856C7.85763 13.2213 7.90088 13.0581 7.92125 12.8923C7.96188 12.5611 7.98975 12.2283 8.023 11.8963L8.03125 11.895L8.0395 11.8964C8.04801 12.3118 8.10651 12.7247 8.21375 13.1261C8.19175 13.1551 8.16063 13.181 8.149 13.2138C8.05813 13.47 7.9725 13.7283 7.88113 13.9845C7.86863 14.0195 7.83388 14.0468 7.80938 14.0775L7.716 13.7568L7.82475 13.3856Z" fill="#A9AA88"/>
<path fill-rule="evenodd" clip-rule="evenodd" d="M7.80951 14.0776C7.83401 14.0469 7.86888 14.0196 7.88126 13.9846C7.97263 13.7284 8.05838 13.4703 8.14913 13.2139C8.16076 13.1811 8.19176 13.1553 8.21388 13.1263L8.37076 13.4705C8.33976 13.5145 8.29701 13.5541 8.27976 13.6031L7.97926 14.4855C7.96688 14.5209 7.92463 14.5459 7.89638 14.5758L7.80951 14.0776Z" fill="#B6B598"/>
<path fill-rule="evenodd" clip-rule="evenodd" d="M7.89636 14.5756C7.92474 14.5459 7.96686 14.5207 7.97924 14.4854L8.27974 13.603C8.29686 13.5541 8.33974 13.5144 8.37074 13.4704L8.52261 13.6C8.44924 13.6725 8.40849 13.7562 8.43299 13.8621L8.38686 14.0131C8.36586 14.039 8.33549 14.0615 8.32511 14.0911C8.22024 14.3915 8.12011 14.6935 8.01449 14.9939C8.00111 15.032 7.96399 15.0619 7.93774 15.0954C7.92407 14.9221 7.91028 14.7489 7.89636 14.5756Z" fill="#C2C1A7"/>
<path fill-rule="evenodd" clip-rule="evenodd" d="M7.93785 15.0954C7.96397 15.0617 8.0011 15.0319 8.0146 14.9939C8.12022 14.6936 8.22035 14.3916 8.32522 14.0911C8.3356 14.0616 8.36585 14.039 8.38697 14.0131L8.32335 14.7062C8.30635 14.7259 8.28172 14.743 8.2736 14.7659C8.20172 14.9676 8.13397 15.1709 8.06185 15.3726C8.04697 15.4142 8.01847 15.451 7.99622 15.4899C7.97647 15.464 7.9411 15.439 7.93947 15.412C7.9331 15.3069 7.93747 15.201 7.93785 15.0954Z" fill="#CECDB7"/>
<path fill-rule="evenodd" clip-rule="evenodd" d="M7.99615 15.4899C8.0184 15.4509 8.0469 15.4141 8.06178 15.3726C8.13403 15.171 8.20166 14.9678 8.27353 14.7659C8.28166 14.743 8.3064 14.726 8.32328 14.7063L8.32478 15.1613L8.17253 15.5518L7.99615 15.4899Z" fill="#DBDAC7"/>
<path fill-rule="evenodd" clip-rule="evenodd" d="M8.17249 15.5519L8.32474 15.1614L8.35611 15.6234L8.17249 15.5519Z" fill="#EBE9DC"/>
<path fill-rule="evenodd" clip-rule="evenodd" d="M8.43299 13.8623C8.40849 13.7564 8.44911 13.6725 8.52261 13.6001L8.56474 13.6289L8.43299 13.8623Z" fill="#CECDB7"/>
<path fill-rule="evenodd" clip-rule="evenodd" d="M8.03951 11.8965L8.03126 11.8951L8.02301 11.8964L8.04239 11.8265L8.03951 11.8965Z" fill="#4FAA41"/>
</svg>
