<svg width="24" height="24" viewBox="0 0 24 24" fill="none" xmlns="http://www.w3.org/2000/svg">
<path d="M2.60001 10.5899L8.38001 4.79995L10.07 6.49995C9.83001 7.34995 10.22 8.27995 11 8.72995V14.2699C10.4 14.6099 10 15.2599 10 15.9999C10 16.5304 10.2107 17.0391 10.5858 17.4142C10.9609 17.7892 11.4696 17.9999 12 17.9999C12.5304 17.9999 13.0391 17.7892 13.4142 17.4142C13.7893 17.0391 14 16.5304 14 15.9999C14 15.2599 13.6 14.6099 13 14.2699V9.40995L15.07 11.4999C15 11.6499 15 11.8199 15 11.9999C15 12.5304 15.2107 13.0391 15.5858 13.4142C15.9609 13.7892 16.4696 13.9999 17 13.9999C17.5304 13.9999 18.0391 13.7892 18.4142 13.4142C18.7893 13.0391 19 12.5304 19 11.9999C19 11.4695 18.7893 10.9608 18.4142 10.5857C18.0391 10.2107 17.5304 9.99995 17 9.99995C16.82 9.99995 16.65 9.99995 16.5 10.0699L13.93 7.49995C14.0542 7.03678 14.006 6.54429 13.7945 6.11394C13.583 5.68358 13.2225 5.3446 12.78 5.15995C12.35 4.99995 11.9 4.95995 11.5 5.06995L9.80001 3.37995L10.59 2.59995C11.37 1.80995 12.63 1.80995 13.41 2.59995L21.4 10.5899C22.19 11.3699 22.19 12.6299 21.4 13.4099L13.41 21.3999C12.63 22.1899 11.37 22.1899 10.59 21.3999L2.60001 13.4099C1.81001 12.6299 1.81001 11.3699 2.60001 10.5899Z" fill="#F05539"/>
</svg>
